<svg xmlns="http://www.w3.org/2000/svg" viewBox="0 0 32 32" fill="none">
  <defs>
    <linearGradient id="lb" x1="0.2" y1="0" x2="0.8" y2="1">
      <stop offset="0%" stop-color="#FDE047"/>
      <stop offset="50%" stop-color="#FACC15"/>
      <stop offset="100%" stop-color="#EAB308"/>
    </linearGradient>
    <linearGradient id="gh" x1="0.3" y1="0" x2="0.7" y2="0.6">
      <stop offset="0%" stop-color="white" stop-opacity="0.6"/>
      <stop offset="100%" stop-color="white" stop-opacity="0"/>
    </linearGradient>
    <linearGradient id="lg" x1="0" y1="0" x2="1" y2="1">
      <stop offset="0%" stop-color="#4ADE80"/>
      <stop offset="100%" stop-color="#16A34A"/>
    </linearGradient>
  </defs>
  <ellipse cx="16" cy="18.5" rx="9" ry="10" fill="url(#lb)" transform="rotate(-15, 16, 18.5)"/>
  <ellipse cx="13" cy="11" rx="2" ry="3" fill="#FACC15" transform="rotate(-25, 13, 11)"/>
  <ellipse cx="14.5" cy="16" rx="5.5" ry="7" fill="url(#gh)" transform="rotate(-15, 14.5, 16)"/>
  <circle cx="13" cy="14" r="1.5" fill="white" fill-opacity="0.5"/>
  <path d="M15 11 Q16 8.5 15.5 7" stroke="#16A34A" stroke-width="0.8" stroke-linecap="round" fill="none"/>
  <path d="M15.5 7.2 Q12.5 4.5 11.5 6 Q10.5 7.5 14.5 8 Z" fill="url(#lg)"/>
  <path d="M15.5 7 Q18.5 3.5 19.5 5.3 Q20.5 7 16 7.8 Z" fill="url(#lg)"/>
</svg>
